<?xml version="1.0" standalone="no"?>
<!DOCTYPE svg PUBLIC "-//W3C//DTD SVG 20010904//EN"
 "http://www.w3.org/TR/2001/REC-SVG-20010904/DTD/svg10.dtd">
<svg version="1.0" xmlns="http://www.w3.org/2000/svg"
 width="150.000000pt" height="72.000000pt" viewBox="0 0 150.000000 72.000000"
 preserveAspectRatio="xMidYMid meet">

<g transform="translate(0.000000,72.000000) scale(0.100000,-0.100000)"
fill="#000000" stroke="none">
<path d="M212 701 c-119 -30 -161 -195 -75 -293 13 -15 12 -21 -14 -54 -24
-33 -28 -46 -28 -104 0 -57 4 -72 28 -103 38 -50 75 -67 146 -67 54 0 64 4 97
32 39 35 73 98 74 136 l0 22 330 0 330 0 0 -23 c0 -44 48 -122 89 -145 54 -30
136 -30 181 1 59 40 75 71 75 146 0 59 -4 72 -28 105 -26 33 -27 39 -14 54 73
84 58 219 -33 275 -26 16 -50 22 -91 21 -92 -1 -158 -56 -174 -146 l-7 -38
-328 0 -328 0 -7 40 c-17 103 -118 167 -223 141z m138 -51 c37 -26 60 -74 60
-125 l0 -35 360 0 360 0 0 35 c0 84 56 145 139 152 51 5 97 -18 133 -68 41
-55 18 -161 -42 -198 l-30 -18 39 -31 c90 -72 64 -217 -46 -253 -90 -29 -193
48 -193 146 l0 35 -360 0 -360 0 0 -36 c0 -53 -36 -110 -85 -134 -49 -24 -74
-25 -118 -6 -104 44 -122 170 -36 247 l40 35 -26 14 c-62 33 -87 135 -49 198
41 70 146 90 214 42z"/>
<path d="M189 637 c-38 -25 -69 -91 -51 -109 7 -7 16 3 29 33 18 40 39 58 86
73 9 3 17 10 17 16 0 18 -46 11 -81 -13z"/>
<path d="M1377 230 c-8 -38 -39 -69 -77 -77 -31 -6 -42 -33 -14 -33 38 0 87
34 105 74 22 49 24 66 5 66 -7 0 -16 -13 -19 -30z"/>
</g>
</svg>
