<?xml version="1.0" standalone="no"?>
<!DOCTYPE svg PUBLIC "-//W3C//DTD SVG 20010904//EN"
 "http://www.w3.org/TR/2001/REC-SVG-20010904/DTD/svg10.dtd">
<svg version="1.0" xmlns="http://www.w3.org/2000/svg"
 width="349.000000pt" height="75.000000pt" viewBox="0 0 349.000000 75.000000"
 preserveAspectRatio="xMidYMid meet">

<g transform="translate(0.000000,75.000000) scale(0.100000,-0.100000)"
fill="#000000" stroke="none">
<path d="M3106 700 c-52 -26 -74 -47 -97 -92 -24 -47 -24 -89 0 -136 28 -53
64 -83 170 -138 51 -27 102 -60 112 -73 27 -33 24 -77 -6 -107 -21 -21 -31
-24 -62 -19 -92 16 -99 21 -125 93 -24 65 -26 67 -59 67 -29 0 -35 -4 -40 -30
-4 -16 -7 -58 -8 -91 l-1 -62 53 -23 c71 -31 228 -39 292 -15 122 47 161 205
72 296 -17 18 -76 54 -130 82 -146 73 -174 111 -126 172 23 29 49 32 114 13
36 -11 40 -17 55 -67 15 -53 17 -55 53 -58 33 -3 37 0 43 25 4 15 8 57 8 92
l1 63 -45 14 c-70 21 -226 18 -274 -6z"/>
<path d="M50 686 c0 -24 16 -36 51 -36 18 0 19 -10 19 -255 0 -140 -3 -255 -7
-255 -5 0 -23 -9 -40 -20 -22 -13 -31 -25 -27 -35 5 -13 31 -15 160 -15 l154
0 0 24 c0 26 -16 36 -61 36 l-29 0 0 253 0 254 40 18 c27 12 40 24 38 34 -3
14 -26 16 -151 19 l-147 3 0 -25z"/>
<path d="M420 686 c0 -24 16 -36 51 -36 18 0 19 -10 19 -253 l0 -254 -40 -18
c-27 -12 -40 -24 -38 -34 3 -14 26 -16 158 -19 240 -4 318 15 397 100 118 129
107 352 -23 467 -72 63 -109 71 -331 71 l-193 0 0 -24z m401 -85 c90 -95 99
-301 16 -389 -41 -44 -89 -59 -170 -54 l-27 2 2 233 3 232 55 6 c30 3 61 6 69
7 8 1 31 -16 52 -37z"/>
<path d="M1120 686 c0 -24 16 -36 51 -36 18 0 19 -10 19 -253 l0 -254 -40 -18
c-27 -12 -40 -24 -38 -34 3 -14 27 -16 171 -19 l167 -2 0 24 c0 25 -16 36 -55
36 -51 0 -55 7 -55 90 l0 78 89 4 c69 3 99 9 137 29 125 64 150 221 51 317
-55 54 -97 62 -308 62 l-189 0 0 -24z m361 -59 c27 -21 42 -59 42 -111 1 -90
-42 -136 -127 -136 -55 0 -57 6 -54 131 l3 114 50 6 c28 3 55 6 60 7 6 1 17
-4 26 -11z"/>
<path d="M1720 686 c0 -24 16 -36 51 -36 18 0 19 -10 19 -253 l0 -254 -40 -18
c-27 -12 -40 -24 -38 -34 3 -14 35 -16 254 -19 l251 -2 7 46 c3 26 6 71 6 101
l0 54 -42 -3 c-40 -3 -41 -5 -55 -50 -15 -54 -18 -55 -125 -61 l-68 -3 0 99 0
99 103 -3 102 -4 3 48 3 48 -105 -7 -106 -7 0 103 0 103 83 -8 c45 -4 83 -8
85 -10 1 -1 6 -22 10 -46 7 -43 8 -44 48 -47 41 -3 41 -2 47 35 4 21 7 64 7
96 l0 57 -250 0 -250 0 0 -24z"/>
<path d="M2310 641 c0 -38 3 -83 6 -100 6 -28 10 -31 45 -31 l38 0 7 60 c5 48
10 60 24 60 9 0 38 3 64 6 l46 7 0 -246 0 -246 -50 -22 c-35 -15 -50 -27 -50
-40 0 -18 10 -19 170 -19 l170 0 0 25 c0 25 -10 31 -70 37 l-25 3 -3 254 -2
254 57 -7 c63 -7 73 -16 73 -63 0 -52 9 -63 50 -63 37 0 37 1 44 46 3 26 6 71
6 100 l0 54 -300 0 -300 0 0 -69z"/>
</g>
</svg>
