<?xml version="1.0" standalone="no"?>
<!DOCTYPE svg PUBLIC "-//W3C//DTD SVG 20010904//EN"
 "http://www.w3.org/TR/2001/REC-SVG-20010904/DTD/svg10.dtd">
<svg version="1.0" xmlns="http://www.w3.org/2000/svg"
 width="399.000000pt" height="39.000000pt" viewBox="0 0 399.000000 39.000000"
 preserveAspectRatio="xMidYMid meet">

<g transform="translate(0.000000,39.000000) scale(0.100000,-0.100000)"
fill="#000000" stroke="none">
<path d="M1550 285 c0 -44 0 -44 -29 -39 -24 5 -32 1 -46 -19 -31 -48 0 -87
65 -82 l35 2 3 92 c2 76 0 91 -13 91 -11 0 -15 -11 -15 -45z m-2 -79 c5 -26
-26 -50 -45 -35 -14 12 -17 41 -6 53 13 13 48 1 51 -18z"/>
<path d="M1890 285 c0 -43 -1 -45 -24 -39 -39 9 -66 -11 -66 -52 0 -27 5 -37
26 -46 20 -9 30 -9 45 0 13 8 19 9 19 1 0 -5 5 -7 10 -4 6 3 10 46 10 96 0 53
-4 89 -10 89 -5 0 -10 -20 -10 -45z m-11 -69 c23 -28 -17 -68 -45 -45 -17 14
-18 46 -1 52 22 9 34 7 46 -7z"/>
<path d="M1385 280 c3 -5 10 -10 16 -10 5 0 9 5 9 10 0 6 -7 10 -16 10 -8 0
-12 -4 -9 -10z"/>
<path d="M2501 268 c-10 -29 0 -119 14 -119 6 1 11 19 13 41 2 30 8 40 20 40
16 1 16 2 0 14 -10 7 -18 21 -18 30 0 24 -19 20 -29 -6z"/>
<path d="M3680 271 c0 -11 -6 -21 -12 -24 -10 -4 -10 -7 0 -18 6 -7 12 -30 12
-52 0 -23 4 -36 10 -32 6 3 10 24 10 46 0 30 4 39 18 39 16 1 16 1 0 14 -10 7
-18 21 -18 30 0 9 -4 16 -10 16 -5 0 -10 -9 -10 -19z"/>
<path d="M96 231 c-24 -26 -20 -58 10 -78 21 -13 30 -14 45 -5 12 8 19 8 19 2
0 -5 5 -10 10 -10 6 0 10 24 10 53 l0 53 -39 1 c-26 1 -44 -4 -55 -16z m62
-13 c18 -18 15 -36 -10 -49 -18 -9 -24 -8 -34 6 -25 34 15 72 44 43z"/>
<path d="M253 234 c-8 -20 2 -89 12 -89 6 0 12 14 13 30 8 64 40 73 44 13 4
-53 22 -56 26 -5 2 20 7 37 13 37 5 0 12 0 17 0 4 1 9 -15 12 -35 3 -20 10
-37 15 -38 14 -3 18 58 5 83 -11 21 -44 27 -55 10 -4 -6 -12 -7 -18 -3 -18 12
-79 9 -84 -3z"/>
<path d="M487 232 c-24 -27 -21 -59 8 -78 54 -35 115 37 65 78 -28 23 -52 23
-73 0z m62 -19 c11 -21 -3 -53 -24 -53 -8 0 -19 9 -25 21 -21 37 28 69 49 32z"/>
<path d="M635 238 c-9 -24 -2 -93 10 -93 6 0 11 14 13 30 2 17 13 38 25 47 12
9 19 20 15 24 -4 4 -14 2 -21 -4 -10 -9 -16 -9 -25 0 -8 8 -13 7 -17 -4z"/>
<path d="M840 240 c0 -6 9 -29 21 -52 17 -33 19 -46 10 -64 -7 -16 -7 -24 0
-24 12 0 71 129 66 144 -2 6 -13 -7 -25 -29 l-20 -40 -16 38 c-15 34 -36 50
-36 27z"/>
<path d="M1107 232 c-27 -29 -22 -71 10 -83 29 -11 53 -6 53 11 0 7 -8 9 -19
5 -11 -3 -24 1 -32 11 -17 21 1 50 31 46 14 -1 20 3 18 10 -7 21 -43 20 -61 0z"/>
<path d="M1230 206 c0 -52 21 -76 50 -59 13 9 20 9 29 0 8 -8 11 4 11 46 0 31
-4 57 -10 57 -5 0 -10 -15 -10 -34 0 -35 -21 -63 -40 -51 -5 3 -10 24 -10 46
0 21 -4 39 -10 39 -5 0 -10 -20 -10 -44z"/>
<path d="M1385 238 c-9 -24 -2 -93 10 -93 14 0 19 85 6 98 -7 7 -12 5 -16 -5z"/>
<path d="M1647 232 c-25 -27 -21 -59 9 -79 21 -13 30 -14 45 -5 12 8 19 8 19
2 0 -5 5 -10 10 -10 6 0 10 25 10 55 0 30 -4 55 -10 55 -5 0 -10 -5 -10 -12 0
-9 -3 -9 -12 0 -17 17 -42 15 -61 -6z m67 -25 c9 -15 7 -21 -8 -33 -26 -19
-33 -18 -46 7 -22 41 29 66 54 26z"/>
<path d="M1988 238 c-36 -30 -26 -81 17 -92 35 -9 65 17 65 55 0 42 -48 63
-82 37z m56 -31 c16 -25 -16 -56 -38 -37 -19 15 -21 46 -3 53 18 8 29 3 41
-16z"/>
<path d="M2237 232 c-25 -27 -21 -59 9 -79 21 -13 30 -14 45 -5 12 8 19 8 19
2 0 -5 5 -10 10 -10 6 0 10 25 10 55 0 30 -4 55 -10 55 -5 0 -10 -5 -10 -12 0
-9 -3 -9 -12 0 -17 17 -42 15 -61 -6z m67 -25 c9 -15 7 -21 -8 -33 -26 -19
-33 -18 -46 7 -22 41 29 66 54 26z"/>
<path d="M2608 218 c-2 -18 -2 -41 0 -50 4 -22 39 -33 57 -18 12 10 15 10 15
1 0 -7 5 -9 10 -6 6 3 10 28 10 56 0 27 -4 49 -10 49 -5 0 -10 -13 -10 -28 0
-34 -23 -68 -38 -58 -7 4 -12 25 -12 47 0 47 -16 52 -22 7z"/>
<path d="M2863 234 c-8 -20 2 -89 12 -89 6 0 11 17 13 38 2 20 7 37 13 37 5 0
12 0 17 0 4 1 9 -15 12 -35 7 -47 24 -50 28 -5 6 60 42 64 42 5 0 -19 5 -37
10 -40 6 -4 10 13 10 45 0 55 -17 73 -51 52 -11 -7 -20 -8 -24 -2 -8 13 -76 8
-82 -6z"/>
<path d="M3097 232 c-25 -27 -21 -59 9 -79 21 -13 30 -14 45 -5 12 8 19 8 19
2 0 -5 5 -10 10 -10 6 0 10 25 10 55 0 30 -4 55 -10 55 -5 0 -10 -5 -10 -12 0
-9 -3 -9 -12 0 -17 17 -42 15 -61 -6z m67 -25 c9 -15 7 -21 -9 -33 -22 -16
-34 -14 -49 8 -7 12 -6 21 4 33 16 19 39 16 54 -8z"/>
<path d="M3256 235 c-10 -27 -7 -35 19 -47 28 -12 23 -32 -6 -25 -26 7 -24
-10 1 -18 23 -7 50 10 50 31 0 8 -11 20 -25 26 -29 13 -33 31 -7 26 11 -2 20
2 21 7 3 18 -46 17 -53 0z"/>
<path d="M3387 232 c-9 -10 -17 -28 -17 -40 0 -28 42 -56 70 -47 25 8 17 20
-12 20 -11 0 -25 7 -31 17 -14 22 9 51 35 44 12 -3 18 0 15 7 -6 20 -42 19
-60 -1z"/>
<path d="M3520 230 c-11 -11 -20 -27 -20 -35 0 -18 35 -55 53 -55 24 0 57 31
57 55 0 24 -33 55 -57 55 -7 0 -22 -9 -33 -20z m64 -22 c13 -22 -14 -54 -38
-45 -16 6 -22 48 -9 61 11 11 35 3 47 -16z"/>
<path d="M3787 232 c-38 -42 -12 -85 54 -88 l39 -2 0 54 c0 30 -4 54 -10 54
-5 0 -10 -5 -10 -12 0 -9 -3 -9 -12 0 -17 17 -42 15 -61 -6z m67 -25 c9 -15 7
-21 -8 -33 -26 -19 -33 -18 -46 7 -22 41 29 66 54 26z"/>
</g>
</svg>
