<?xml version="1.0" standalone="no"?>
<!DOCTYPE svg PUBLIC "-//W3C//DTD SVG 20010904//EN"
 "http://www.w3.org/TR/2001/REC-SVG-20010904/DTD/svg10.dtd">
<svg version="1.0" xmlns="http://www.w3.org/2000/svg"
 width="256.000000pt" height="256.000000pt" viewBox="0 0 256.000000 256.000000"
 preserveAspectRatio="xMidYMid meet">

<g transform="translate(0.000000,256.000000) scale(0.100000,-0.100000)"
fill="#000000" stroke="none">
<path d="M1165 2268 c-27 -5 -86 -27 -131 -48 -111 -54 -200 -142 -253 -253
-49 -101 -61 -166 -61 -323 l0 -122 -37 -7 c-52 -9 -106 -46 -134 -92 l-24
-38 0 -545 0 -545 24 -38 c13 -21 42 -50 64 -65 l41 -27 626 0 626 0 41 27
c22 15 51 44 64 65 l24 38 0 546 0 545 -27 41 c-31 47 -77 78 -130 88 l-38 7
0 122 c0 157 -12 222 -61 323 -108 226 -359 349 -614 301z m246 -257 c69 -33
112 -74 149 -143 34 -62 34 -66 38 -205 l4 -143 -322 0 -322 0 4 143 c4 125 7
148 28 192 42 85 123 152 215 176 49 13 158 2 206 -20z m511 -609 l33 -32 0
-530 0 -530 -33 -32 -32 -33 -610 0 -610 0 -32 33 -33 32 0 529 0 529 25 27
c14 15 34 31 45 36 11 4 289 7 617 6 l598 -2 32 -33z"/>
<path d="M1235 1191 c-45 -20 -70 -60 -70 -112 0 -42 5 -53 33 -81 28 -28 39
-33 82 -33 43 0 54 5 82 33 28 28 33 39 33 82 0 42 -5 54 -31 81 -33 33 -92
46 -129 30z"/>
<path d="M995 1031 c-45 -20 -70 -60 -70 -112 0 -42 5 -53 33 -81 28 -28 39
-33 82 -33 43 0 54 5 82 33 28 28 33 39 33 82 0 42 -5 54 -31 81 -33 33 -92
46 -129 30z"/>
<path d="M1475 1031 c-45 -20 -70 -60 -70 -112 0 -42 5 -53 33 -81 28 -28 39
-33 82 -33 43 0 54 5 82 33 28 28 33 39 33 82 0 42 -5 54 -31 81 -33 33 -92
46 -129 30z"/>
<path d="M1155 791 c-11 -5 -31 -21 -45 -36 -23 -24 -25 -35 -25 -116 0 -87 1
-89 33 -121 l32 -33 130 0 130 0 32 33 c32 32 33 34 33 122 0 88 -1 90 -33
122 l-32 33 -118 2 c-64 2 -126 -1 -137 -6z"/>
</g>
</svg>
